<svg width="391" height="398" viewBox="0 0 391 398" fill="none" xmlns="http://www.w3.org/2000/svg">
<g clip-path="url(#clip0_11_2309)">
<path d="M206.156 264.335L268.015 155.672L261.72 149.103L198.219 262.145L206.156 264.335Z" fill="#F0F0F0"/>
<path d="M291.828 181.127L285.533 174.558L231.064 271.725L238.728 274.188L291.828 181.127Z" fill="#F0F0F0"/>
<path d="M281.974 180.853L285.533 174.284L292.375 180.305L288.817 186.327L281.974 180.853Z" fill="#0C8900"/>
<path d="M268.563 204.392L272.121 197.823L278.964 203.845L275.405 209.867L268.563 204.392Z" fill="#0C8900"/>
<path d="M251.592 234.774L255.698 227.384L263.362 231.216L258.709 239.153L251.592 234.774Z" fill="#0C8900"/>
<path d="M235.991 262.693L240.097 255.302L247.761 259.134L243.108 267.072L235.991 262.693Z" fill="#0C8900"/>
<path d="M242.834 182.769L246.118 176.747L252.961 182.221L249.677 187.969L242.834 182.769Z" fill="#0C8900"/>
<path d="M223.127 217.804L226.685 210.961L234.349 214.793L230.243 222.183L223.127 217.804Z" fill="#0C8900"/>
<path d="M204.788 250.102L208.346 243.259L216.01 247.091L211.904 254.481L204.788 250.102Z" fill="#0C8900"/>
<path d="M258.435 154.85L261.72 149.103L268.026 155.672L265.278 160.598L258.435 154.85Z" fill="#0C8900"/>
<path d="M355.35 221.144C429.582 256.615 375.646 359.731 303.638 311.885L355.35 221.144Z" fill="white"/>
<path fill-rule="evenodd" clip-rule="evenodd" d="M384.068 298.426C370.737 322.047 339.955 335.235 304.904 311.687L312.594 298.13C341.412 315.202 367.194 311.521 384.068 298.426ZM330.968 265.739L356.829 221.699C356.6 221.586 356.371 221.474 356.14 221.363L330.968 265.739Z" fill="#A7A7A7"/>
<path d="M31.5282 173.207C-0.972581 163.211 -14.0497 229.359 21.591 239.115C57.2317 248.87 125.302 266.416 154.972 272.546C184.643 278.677 197.015 234.818 171.395 227.384C145.775 219.949 64.029 183.203 31.5282 173.207Z" fill="#539B4C"/>
<path d="M55.068 130.764C24.5616 115.744 1.16866 178.985 34.8134 194.264C68.4582 209.544 135.133 235.242 163.458 245.996C191.782 256.75 213.578 217.16 189.46 205.76C165.342 194.36 85.5745 145.783 55.068 130.764Z" fill="#65C952"/>
<path d="M155.794 7.86776C131.739 -16.1654 81.4991 22.8142 108.441 48.1033C135.384 73.3923 201.682 127.894 225.042 147.187C248.403 166.48 270.762 127.966 251.592 109.415C232.422 90.8629 179.848 31.9009 155.794 7.86776Z" fill="#CDF8C5"/>
<path d="M120.759 42.6291C94.0674 21.5625 48.0803 65.2666 77.786 87.2439C107.492 109.221 182.897 155.107 208.346 171.547C233.795 187.987 250.623 146.408 229.422 130.217C208.221 114.025 147.45 63.6956 120.759 42.6291Z" fill="#95C08C"/>
<path d="M84.2677 82.0093C51.1215 60.9848 11.8217 119.542 48.4991 141.439C85.1765 163.336 160.956 198.683 187.271 213.699C213.585 228.714 238.147 183.473 216.087 168.471C194.028 153.47 117.414 103.034 84.2677 82.0093Z" fill="#E8FCC8"/>
<path d="M89.5555 125.29L219.842 202.203C208.018 221.472 191.741 216.983 185.081 212.33C149.316 194.174 72.1475 154.741 49.5937 142.26C27.04 129.779 33.8097 106.404 40.0139 96.2766L89.5555 125.29Z" fill="#5EF940"/>
<path d="M173.197 152.935L177.85 172.642C180.404 174.466 185.459 177.842 185.24 176.747C185.021 175.653 177.12 160.416 173.197 152.935Z" fill="#646B57"/>
<path d="M183.05 165.525L190.167 179.758L196.736 183.59L183.05 165.525Z" fill="#646B57"/>
<path d="M118.455 103.667C118.911 106.951 117.852 111.714 109.969 104.488C102.456 97.6007 100.48 81.8786 100.39 73.8627C105.316 94.6952 114.896 102.846 111.612 99.2873C108.327 95.729 109.969 82.0435 109.969 89.4337C109.969 95.3458 115.626 101.386 118.455 103.667Z" fill="#E8FCC8"/>
<path d="M102.306 98.1922C100.116 96.6594 99.021 92.4443 98.7473 90.5283C99.6921 90.4803 100.826 89.2062 101.529 88.1748C101.522 87.7561 101.593 87.4372 101.758 87.2438C102.498 86.3752 102.223 87.1567 101.529 88.1748C101.586 91.5423 106.729 101.363 109.422 104.214C107.962 102.845 104.495 99.725 102.306 98.1922Z" fill="#95C08C"/>
<path d="M138.162 222.731H151.026C154.442 224.08 159.276 225.973 162.778 227.311C164.296 227.716 165.533 228.11 166.354 228.479C168.576 229.479 166.383 228.689 162.778 227.311C156.192 225.559 144.315 223.621 138.162 222.731Z" fill="#646B57"/>
<path d="M125.571 160.872L145.826 163.609L153.216 167.989L125.571 160.872Z" fill="#646B57"/>
<path d="M327.684 204.939L355.876 221.362L304.966 311.687L276.226 294.99L327.684 204.939Z" fill="#1E1F21"/>
<path d="M161.268 30.0384C163.457 32.2281 326.863 206.308 326.863 206.308L324.673 210.14C324.673 210.14 159.352 34.9652 157.436 32.7755C155.52 30.5858 159.078 27.8487 161.268 30.0384Z" fill="white"/>
<path d="M156.889 31.9546L324.673 210.14L322.484 213.699L156.341 36.8814C156.029 34.1706 156.16 33.108 156.889 31.9546Z" fill="#10B77B"/>
<path d="M56.4365 220.268L281.153 286.506L278.964 290.338L49.8675 223.552C44.1196 222.183 50.9623 217.53 56.4365 220.268Z" fill="white"/>
<path d="M49.5938 223.552L278.964 290.337L277.048 293.896C203.419 272.09 54.7395 228.205 51.236 227.11C47.7325 226.015 48.6814 224.282 49.5938 223.552Z" fill="#10B77B"/>
<path d="M130.065 70.0001L316.462 224.647L314.272 228.479C252.049 176.656 127.054 72.573 124.864 70.8212C124.426 68.4125 128.149 69.2702 130.065 70.0001Z" fill="white"/>
<path d="M124.864 70.8215L314.272 228.479L312.356 231.764C249.859 179.85 124.7 75.8578 124.043 75.2009C123.386 74.544 124.317 72.0076 124.864 70.8215Z" fill="#10B77B"/>
<path d="M98.8619 126.111L303.871 246.544L301.682 250.376L92.5665 127.206C88.8441 125.235 96.3985 124.743 98.8619 126.111Z" fill="white"/>
<path d="M91.7453 126.659L301.682 250.376L299.766 253.934C231.064 213.516 93.3876 132.516 92.2928 131.859C91.1979 131.202 91.4716 128.118 91.7453 126.659Z" fill="#10B77B"/>
<path d="M68.4798 181.674L291.554 267.893L289.365 271.725L61.3633 183.864C58.8999 183.864 63.8267 179.211 68.4798 181.674Z" fill="white"/>
<path d="M61.0897 183.864L289.365 271.725L287.449 275.009C213.547 246.452 65.1954 189.119 63.0057 188.243C60.816 187.367 60.816 184.959 61.0897 183.864Z" fill="#10B77B"/>
<path d="M321.389 216.162L350.128 231.763L340.549 249.007L311.535 233.405L321.389 216.162Z" fill="#575B61"/>
<path d="M310.44 235.595L339.18 251.197L336.443 256.124L307.156 241.343L310.44 235.595Z" fill="#575B61"/>
<path d="M283.343 282.673L312.356 298.275L304.966 311.687L276.226 294.99L283.343 282.673Z" fill="#3D3D3D"/>
<ellipse cx="147.828" cy="18.8505" rx="147.828" ry="18.8505" transform="matrix(-1 0 0 1 376.948 360.042)" fill="black" fill-opacity="0.3"/>
</g>
<defs>
<clipPath id="clip0_11_2309">
<rect width="391" height="398" fill="white"/>
</clipPath>
</defs>
</svg>
