<svg width="581" height="511" viewBox="0 0 581 511" fill="none" xmlns="http://www.w3.org/2000/svg">
<mask id="mask0_11_2039" style="mask-type:luminance" maskUnits="userSpaceOnUse" x="0" y="0" width="581" height="477">
<path fill-rule="evenodd" clip-rule="evenodd" d="M81.9184 86.7457C81.9184 86.7457 183.578 -21.4658 345.485 3.83316C507.392 29.1321 345.485 153.269 499.384 190.741C653.284 228.212 556.805 430.112 465.5 459.621C374.195 489.129 320.066 483.979 278.182 418.403C236.297 352.826 126.63 403.88 56.5 360.312C-13.6298 316.744 -32.4505 209.01 81.9184 86.7457Z" fill="white"/>
</mask>
<g mask="url(#mask0_11_2039)">
<path d="M81.9184 86.7457C81.9184 86.7457 183.578 -21.4658 345.485 3.83316C507.392 29.1321 345.485 153.269 499.384 190.741C653.284 228.212 556.805 430.112 465.5 459.621C374.195 489.129 320.066 483.979 278.182 418.403C236.297 352.826 126.63 403.88 56.5 360.312C-13.6298 316.744 -32.4505 209.01 81.9184 86.7457Z" fill="#866EF9"/>
<g opacity="0.59">
<path d="M493.181 179.817C493.181 179.817 533.022 272.713 468.453 332.712C403.885 392.711 489.523 423.587 523.879 387.519C558.236 351.451 580.806 240.693 536.123 189.955C491.44 139.217 493.181 179.817 493.181 179.817Z" fill="#A997FF"/>
<path d="M119.101 261.509C119.101 261.509 109.684 322.841 181.224 328.93C252.763 335.02 314.907 357.506 320.546 391.231C326.185 424.956 439.609 378.385 383.605 319.929C327.602 261.474 281.741 262.4 229.84 264.287C177.939 266.174 119.101 261.509 119.101 261.509Z" fill="#A997FF"/>
<path d="M342.743 489.599C342.743 489.599 345.88 437.605 399.134 444.635C452.389 451.665 435.408 404.343 515.442 434.329C595.475 464.314 395.074 509.741 342.743 489.599Z" fill="#A997FF"/>
<path d="M395.37 203.916C395.37 203.916 464.02 207.368 471.351 250.115C478.681 292.862 447.61 344.639 421.226 319.929C394.841 295.22 430.086 230.555 353.648 223.062C277.209 215.569 349.249 188.047 395.37 203.916Z" fill="#A997FF"/>
<path d="M-20.6859 237.347C-19.8047 238.813 10.8511 291.922 43.7978 271.78C76.7444 251.638 12.2608 236.645 30.6163 213.689C48.9717 190.734 40.6257 150.919 16.321 150.919C-7.98368 150.919 -37.6244 209.01 -20.6859 237.347Z" fill="#A997FF"/>
<path d="M93.8593 384.671C93.8593 384.671 146.423 336.893 167.824 367.833C189.224 398.773 208.003 352.398 224.504 376.252C241.006 400.106 158.512 422.149 93.8593 384.671H93.8593Z" fill="#A997FF"/>
<path d="M294.895 -8.34629C294.895 -8.34629 387.835 -0.692068 396.308 58.4861C404.78 117.664 326.199 88.3944 320.546 60.8714C314.892 33.3485 291.892 21.583 266.445 28.6339C240.999 35.6848 194.06 10.3929 234.471 -8.34629C274.883 -27.0854 294.895 -8.34629 294.895 -8.34629Z" fill="#A997FF"/>
<path d="M428.655 87.8612C428.655 87.8612 398.07 99.6758 407.311 129.759C416.552 159.843 387.066 162.186 405.57 174.366C424.073 186.545 447.159 168.901 440.11 142.795C433.061 116.689 428.655 87.8612 428.655 87.8612Z" fill="#A997FF"/>
<path d="M259.805 95.2417C259.805 95.2417 280.585 75.8361 290.221 91.8321C299.857 107.828 336.794 120.316 320.2 144.991C303.607 169.665 226.675 178.842 259.805 95.2417Z" fill="#A997FF"/>
</g>
</g>
<path d="M72.9381 24.1299H243.261V302.692H72.9381L72.9381 24.1299Z" fill="white" stroke="#111111" stroke-width="1.34"/>
<path d="M114.788 142.802H150.843V178.674H114.788C104.833 178.674 96.7634 170.642 96.7634 160.734C96.7673 150.829 104.836 142.802 114.788 142.802V142.802Z" fill="#111111" stroke="#111111" stroke-width="1.34"/>
<path d="M92.943 57.104H160.451V116.801H92.943L92.943 57.104Z" fill="#111111" stroke="#111111" stroke-width="1.34"/>
<path d="M98.9698 48.8044H184.565V108.502H98.9698L98.9698 48.8044Z" fill="white" stroke="#111111" stroke-width="1.34"/>
<rect x="85.9504" y="279.897" width="163.747" height="13.4773" rx="6.73866" fill="#111111" stroke="#111111" stroke-width="1.34"/>
<rect x="89.4537" y="276.151" width="163.747" height="13.4773" rx="6.73866" fill="white" stroke="#111111" stroke-width="1.34"/>
<path d="M507.54 279.596C505.461 279.596 503.776 277.918 503.776 275.849V242.124C503.772 238.677 500.965 235.884 497.502 235.88H264.035C262.65 235.94 261.343 235.238 260.633 234.054C259.923 232.869 259.923 231.392 260.633 230.207C261.343 229.022 262.65 228.321 264.035 228.38H497.502C505.125 228.388 511.303 234.537 511.311 242.124V275.884C511.288 277.941 509.606 279.596 507.54 279.596Z" fill="white" stroke="#111111" stroke-width="1.34"/>
<path fill-rule="evenodd" clip-rule="evenodd" d="M113.568 148.702H149.623V184.574H113.568C103.622 184.562 95.5652 176.534 95.5652 166.634C95.5691 156.738 103.625 148.714 113.568 148.702V148.702Z" stroke="#111111" stroke-width="1.34"/>
<path d="M128.751 154.673C119.905 159.17 127.476 172.914 136.752 161.464C170.855 185.956 199.184 198.584 221.833 204.541C220.872 198.605 220.4 192.6 220.423 186.587C220.385 180.168 220.92 173.759 222.023 167.434L221.889 167.315C181.957 166.887 144.372 146.717 128.751 154.673Z" fill="white"/>
<path d="M143.998 58.4861H274.03V264.287H143.998V58.4861Z" fill="white" stroke="#111111" stroke-width="1.34"/>
<path d="M154.649 86.009H214.488V142.802H154.649V86.009Z" fill="#111111" stroke="#111111" stroke-width="1.34"/>
<path d="M158.724 81.9048H218.562V138.698H158.724V81.9048Z" fill="white" stroke="#111111" stroke-width="1.34"/>
<path d="M153.754 200.458H191.945V254.563H153.754V200.458Z" fill="#111111" stroke="#111111" stroke-width="1.34"/>
<path d="M158.724 196.009H196.915V250.115H158.724V196.009Z" fill="white" stroke="#111111" stroke-width="1.34"/>
<path d="M158.724 114.647L180.596 92.5266L194.405 113.132L209.018 100.644L218.562 110.305L217.307 133.12" fill="white"/>
<path d="M158.724 114.647L180.596 92.5266L194.405 113.132L209.018 100.644L218.562 110.305L217.307 133.12" stroke="#111111" stroke-width="1.34"/>
<path d="M186.264 100.644H294.895V228.058H186.264V100.644Z" fill="white" stroke="#111111" stroke-width="1.34"/>
<path d="M186.264 100.644H294.895V114.647H186.264V100.644Z" fill="#111111" stroke="#111111" stroke-width="1.34"/>
<path d="M308.302 312.535C316.211 307.49 323.041 306.003 328.941 307.083C335.285 269.816 338.922 234.709 330.386 233.839C312.059 231.958 285.386 214.966 259.587 245.548C259.587 245.548 213.945 282.732 221.233 322.841C221.919 326.583 223.015 330.24 224.504 333.743C238.278 335.82 270.209 336.816 308.302 312.535Z" fill="#F9B132" stroke="#111111" stroke-width="1.34"/>
<path d="M289.009 236.21L283.821 230.78C281.706 232.786 233.336 279.126 238.299 325.837C240.681 325.752 243.233 325.605 245.827 325.353C241.041 282.198 288.515 236.68 289.009 236.21Z" fill="white" stroke="#111111" stroke-width="1.34"/>
<path d="M309.747 229.271C313.603 233.411 296.537 294.967 283.123 308.788C269.709 322.609 259.354 323.072 250.233 324.833C258.769 321.676 266.41 313.236 263.478 289.628C260.545 266.02 298.328 246.832 291.673 232.274C293.4 231.958 304.918 224.087 309.747 229.271Z" fill="#111111" stroke="#111111" stroke-width="1.34"/>
<path d="M221.741 325.402C221.741 325.402 260.926 329.611 277.893 313.938" stroke="#111111" stroke-width="1.34"/>
<path d="M310.875 395.447C310.875 395.447 321.674 349.845 328.941 307.083C323.041 306.003 316.211 307.49 308.302 312.535C270.238 336.816 238.278 335.82 224.504 333.743C242.126 375.508 310.875 395.447 310.875 395.447Z" fill="#FC9E7A"/>
<path d="M294.711 389.673C323.612 401.383 300.048 344.934 289.841 322.658C260.08 336.444 235.98 335.476 224.504 333.743C224.504 333.743 246.786 341.734 259.502 343.762C272.218 345.789 258.847 375.151 294.711 389.673Z" fill="#F97A53"/>
<path fill-rule="evenodd" clip-rule="evenodd" d="M310.875 395.447C310.875 395.447 321.674 349.845 328.941 307.083C323.041 306.003 316.211 307.49 308.302 312.535C270.238 336.816 238.278 335.82 224.504 333.743C242.126 375.508 310.875 395.447 310.875 395.447V395.447Z" stroke="#111111" stroke-width="1.34"/>
<path d="M349.038 346.098C351.286 322.715 359.132 297.493 376.077 271.78C381.096 234.926 330.421 223.259 330.421 223.259C330.421 223.259 271.767 229.573 274.1 326.742C274.357 338.97 276.012 351.13 279.035 362.985C287.55 365.742 314.907 371.439 349.038 346.098Z" fill="#F9B132"/>
<path fill-rule="evenodd" clip-rule="evenodd" d="M349.038 346.098C351.286 322.715 359.132 297.493 376.077 271.78C381.096 234.926 330.421 223.259 330.421 223.259C330.421 223.259 308.901 225.581 292.449 249.007C289.201 253.673 286.435 258.653 284.194 263.873C277.724 278.761 273.438 299.064 274.1 326.742C274.357 338.97 276.012 351.13 279.035 362.985C287.55 365.742 314.907 371.439 349.038 346.098V346.098Z" stroke="#111111" stroke-width="1.34"/>
<path d="M356.855 237.346L358.568 241.205L355.135 233.488C354.515 233.761 339.796 240.412 327.228 259.137C316.655 274.86 305.835 302.327 311.142 345.761C311.467 348.404 311.85 351.11 312.291 353.879C314.991 353.352 317.754 352.7 320.546 351.893C320.104 349.087 319.728 346.332 319.418 343.629C315.71 311.651 320.673 284.387 333.974 264.273C345.154 247.358 358.455 241.247 358.582 241.191L356.855 237.346Z" fill="white" stroke="#111111" stroke-width="1.34"/>
<path d="M302.86 237.206C302.472 237.557 302.092 237.908 301.704 238.28C313.56 241.044 346.465 249.842 348.777 262.877C351.596 278.803 331.154 272.341 336.307 289.628C341.46 306.915 324.169 314.885 328.941 339.938C330.901 350.202 340.219 344.779 350.567 334.803C354.028 314.674 361.845 293.41 376.077 271.78C376.842 266.584 376.388 261.282 374.752 256.289C364.129 245.295 343.123 236.533 302.86 237.206Z" fill="#111111" stroke="#111111" stroke-width="1.34"/>
<path d="M366.949 468.524C375.408 474.459 374.794 508.513 374.794 508.513C374.794 508.513 380.123 490.714 386.714 470.102C383.676 466.847 342.461 414.32 349.009 346.119C314.878 371.46 287.522 365.763 279.021 363.006C297.284 433.739 359.646 463.388 366.949 468.524Z" fill="#FC9E7A"/>
<path d="M328.941 365.539C346.895 357.969 322.421 391.385 341.559 416.993C360.696 442.6 382.781 467.506 378.587 481.012C376.387 488.07 375.33 497.92 374.823 505.707V508.513C374.823 508.513 380.152 490.714 386.742 470.102C383.704 466.847 342.489 414.32 349.038 346.119C317.451 369.573 291.673 366.465 281.269 363.659C280.963 363.62 280.664 363.537 280.381 363.413C280.381 363.413 309.465 375.305 328.941 365.539Z" fill="#F97A53"/>
<path fill-rule="evenodd" clip-rule="evenodd" d="M366.949 468.524C375.408 474.459 374.794 508.513 374.794 508.513C374.794 508.513 380.123 490.714 386.714 470.102C383.676 466.847 342.461 414.32 349.009 346.119C314.878 371.46 287.522 365.763 279.021 363.006C297.284 433.739 359.646 463.388 366.949 468.524V468.524Z" stroke="#111111" stroke-width="1.34"/>
<path d="M406.529 184.574C399.938 154.595 348.305 129.374 348.305 129.374C328.568 125.866 313.243 136.635 261.004 159.822C256.714 161.719 252.272 163.251 247.723 164.403C244.037 172.984 238.785 191.211 250.233 209.052C254.111 209.233 257.997 209.194 261.871 208.933C290.898 194.024 298.102 160.601 300.774 155.725C300.485 180.147 290.87 200.254 289.256 203.432L289.213 203.523L289.023 203.895C286.676 208.406 279.761 219.737 259.594 245.52C343.603 220.017 376.113 271.78 376.113 271.78C376.113 271.78 413.112 214.552 406.529 184.574Z" fill="#FC3F3F"/>
<path fill-rule="evenodd" clip-rule="evenodd" d="M406.529 184.574C399.938 154.595 348.305 129.374 348.305 129.374C328.568 125.866 313.243 136.635 261.004 159.822C256.714 161.719 252.272 163.251 247.723 164.403C244.037 172.984 238.785 191.211 250.233 209.052C276.976 210.244 290.2 201.278 290.2 201.278C290.2 201.278 288.537 208.54 259.587 245.548C343.603 220.017 376.113 271.78 376.113 271.78C376.113 271.78 413.112 214.552 406.529 184.574V184.574Z" stroke="#111111" stroke-width="1.34"/>
<path d="M289.256 203.453C290.87 200.254 300.485 180.147 300.774 155.746C298.102 160.657 290.905 194.045 261.87 208.954C280.811 207.663 290.2 201.299 290.2 201.299C289.955 202.046 289.639 202.767 289.256 203.453Z" fill="#111111" stroke="#111111" stroke-width="1.34"/>
<path d="M372.074 185.121C372.236 180.911 364.32 171.749 354.183 165.442C355.128 168.374 361.366 182.778 355.84 189.688C350.313 196.599 369.606 199.637 372.074 185.121Z" fill="#111111" stroke="#111111" stroke-width="1.34"/>
<path d="M229.84 220.838C235.03 220.838 239.236 205.504 239.236 186.587C239.236 167.671 235.03 152.336 229.84 152.336C224.651 152.336 220.444 167.671 220.444 186.587C220.444 205.504 224.651 220.838 229.84 220.838Z" fill="#111111" stroke="#111111" stroke-width="1.34"/>
<path d="M220.444 186.587C220.421 192.6 220.893 198.605 221.854 204.541C231.132 207.046 240.653 208.558 250.254 209.052C238.806 191.211 244.058 172.984 247.744 164.403C239.306 166.498 230.627 167.477 221.931 167.315L222.065 167.434C220.956 173.758 220.413 180.168 220.444 186.587Z" fill="#FC9E7A"/>
<path d="M221.833 204.541C231.111 207.046 240.632 208.558 250.233 209.052C238.785 191.211 244.037 172.984 247.723 164.403L247.328 164.502C244.248 168.564 239.73 176.983 239.116 191.912C239.116 199.258 229.777 189.506 220.451 187.759C220.478 193.38 220.94 198.99 221.833 204.541Z" fill="#F97A53"/>
<path fill-rule="evenodd" clip-rule="evenodd" d="M220.444 186.587C220.421 192.6 220.893 198.605 221.854 204.541C231.132 207.046 240.653 208.558 250.254 209.052C238.806 191.211 244.058 172.984 247.744 164.403C239.306 166.498 230.627 167.477 221.931 167.315L222.065 167.434C220.956 173.758 220.413 180.168 220.444 186.587V186.587Z" stroke="#111111" stroke-width="1.34"/>
<path fill-rule="evenodd" clip-rule="evenodd" d="M128.751 154.673C119.905 159.17 127.476 172.914 136.752 161.464C170.855 185.956 199.184 198.584 221.833 204.541C220.872 198.605 220.4 192.6 220.423 186.587C220.385 180.168 220.92 173.759 222.023 167.434L221.889 167.315C181.957 166.887 144.372 146.717 128.751 154.673V154.673Z" stroke="#111111" stroke-width="1.34"/>
<path d="M419.816 166.852C392.05 129.605 348.276 129.374 348.276 129.374C338.408 141.083 323.802 156.307 339.606 159.352C355.41 162.397 372.278 178.996 372.031 185.121C403.046 180.848 415.128 202.836 418.371 210.504C431.355 199.826 432.264 183.507 419.816 166.852Z" fill="#FC3F3F"/>
<path d="M372.074 185.121C301.944 197.048 305.475 218.846 310.875 222.122C316.274 225.399 319.594 221.189 317.712 214.159C368.056 228.275 402.419 223.701 418.413 210.504C415.171 202.836 403.075 180.848 372.074 185.121Z" fill="#FC9E7A"/>
<path fill-rule="evenodd" clip-rule="evenodd" d="M372.074 185.121C301.944 197.048 305.475 218.846 310.875 222.122C316.274 225.399 319.594 221.189 317.712 214.159C368.056 228.275 402.419 223.701 418.413 210.504C415.171 202.836 403.075 180.848 372.074 185.121Z" stroke="#111111" stroke-width="1.34"/>
<path d="M418.406 210.504C415.164 202.836 403.068 180.848 372.066 185.121L371.77 185.17C379.813 186.756 400.029 191.576 402.659 200.458C405.951 211.585 371.058 189.85 368.471 206.667C366.892 216.973 316.528 198.465 314.646 214.384C314.202 218.151 313.187 220.796 311.897 222.655C316.676 224.823 319.467 220.712 317.705 214.145C368.056 228.275 402.419 223.701 418.406 210.504Z" fill="#F97A53"/>
<path d="M354.183 165.442C364.299 171.756 372.236 180.926 372.074 185.121C301.944 197.048 305.475 218.846 310.875 222.122C316.274 225.399 319.594 221.189 317.712 214.159C408.784 239.69 447.61 204.092 419.844 166.852C392.078 129.612 348.305 129.374 348.305 129.374" stroke="#111111" stroke-width="1.34" stroke-linecap="round"/>
<path d="M337.343 96.7923C337.343 96.7923 318.671 118.289 337.083 123.936C336.223 134.039 333.128 152.792 333.128 152.792C333.128 152.792 351.455 136.986 353.02 128.419C354.585 119.853 352.83 95.8522 352.83 95.8522C352.83 95.8522 342.348 91.3691 337.343 96.7923Z" fill="#FC9E7A"/>
<path d="M353.034 128.419C354.395 120.92 353.225 101.577 352.915 96.8835C350.977 96.1489 348.787 96.5793 347.275 97.992C347.275 97.992 355.198 101.17 352.527 106.762C349.855 112.353 349.235 118.597 350.962 121.726C352.499 124.533 344.71 138.733 335.215 139.182C334.171 146.464 333.1 152.792 333.1 152.792C333.1 152.792 351.484 136.972 353.034 128.419Z" fill="#F97A53"/>
<path fill-rule="evenodd" clip-rule="evenodd" d="M337.343 96.7923C337.343 96.7923 318.671 118.289 337.083 123.936C336.223 134.039 333.128 152.792 333.128 152.792C333.128 152.792 351.455 136.986 353.02 128.419C354.585 119.853 352.83 95.8522 352.83 95.8522C352.83 95.8522 342.348 91.3691 337.343 96.7923Z" stroke="#111111" stroke-width="1.34"/>
<path d="M335.581 84.8514C313.271 84.3673 315.844 70.3708 319.947 61.2433C316.742 63.3785 314.047 66.1878 312.052 69.4728C301.732 86.0862 324.705 101.044 337.787 97.6482C350.87 94.2525 342.517 105.267 344.667 110.066C344.667 110.066 349.059 100.132 350.602 101.647C352.146 103.163 346.563 112.774 354.388 112.094C361.733 111.448 358.032 101.928 361.014 100.314C359.421 99.2618 356.481 98.9461 352.308 98.4269C344.773 97.5219 368.782 85.574 335.581 84.8514Z" fill="#BC3C1E"/>
<path fill-rule="evenodd" clip-rule="evenodd" d="M344.667 110.066C344.667 110.066 349.059 100.132 350.602 101.647C352.146 103.163 346.563 112.774 354.388 112.094C362.212 111.413 357.489 100.616 361.704 100.104C365.92 99.5916 376.719 90.3869 371.855 80.0667C366.864 69.4729 357.496 80.0667 351.378 69.0168C343.293 54.417 322.378 52.8314 312.052 69.4448C301.725 86.0582 324.705 101.016 337.787 97.6202C350.87 94.2246 342.517 105.267 344.667 110.066V110.066Z" stroke="#111111" stroke-width="1.34"/>
<path d="M347.289 120.597C347.289 120.597 344.322 125.508 337.097 123.936L347.289 120.597Z" fill="#FC9E7A"/>
<path d="M347.289 120.597C347.289 120.597 344.322 125.508 337.097 123.936" stroke="#111111" stroke-width="1.34" stroke-linecap="round"/>
<path d="M337.097 123.936C344.322 125.48 347.289 120.597 347.289 120.597C347.127 121.881 345.999 128.749 336.568 129.374C336.956 125.452 337.097 123.936 337.097 123.936Z" fill="#111111" stroke="#111111" stroke-width="1.34"/>
<path d="M335.581 155.514C334.496 156.125 333.403 156.707 332.303 157.247" stroke="#111111" stroke-width="1.34" stroke-linecap="round"/>
<path d="M340.72 152.336C339.752 152.982 338.77 153.611 337.773 154.224" stroke="#111111" stroke-width="1.34" stroke-linecap="round"/>
<path d="M352.682 129.738C352.682 129.738 356.911 129.605 357.01 134.65C357.073 137.168 354.049 141.251 349.446 145.496C347.32 147.435 345.082 149.248 342.743 150.926" stroke="#111111" stroke-width="1.34" stroke-linecap="round"/>
<path d="M327.475 151.705C327.419 152.968 327.383 154.308 327.369 155.725" stroke="#111111" stroke-width="1.34" stroke-linecap="round"/>
<path d="M335.701 129.079C335.701 129.079 329.202 129.409 327.672 148.316" stroke="#111111" stroke-width="1.34" stroke-linecap="round"/>
<path d="M289.023 203.916C289.023 203.916 300.456 182.385 300.774 155.725" stroke="#111111" stroke-width="1.34" stroke-linecap="round"/>
<path d="M289.213 203.545L289.016 203.923L289.213 203.545Z" fill="#FC3F3F" stroke="#111111" stroke-linecap="round"/>
<path d="M194.405 110.143C195.791 110.143 196.915 109.025 196.915 107.646C196.915 106.266 195.791 105.148 194.405 105.148C193.019 105.148 191.896 106.266 191.896 107.646C191.896 109.025 193.019 110.143 194.405 110.143Z" fill="white" stroke="#111111"/>
<path d="M203.506 110.143C204.891 110.143 206.015 109.025 206.015 107.646C206.015 106.266 204.891 105.148 203.506 105.148C202.12 105.148 200.996 106.266 200.996 107.646C200.996 109.025 202.12 110.143 203.506 110.143Z" fill="white" stroke="#111111"/>
<path d="M212.606 110.143C213.992 110.143 215.115 109.025 215.115 107.646C215.115 106.266 213.992 105.148 212.606 105.148C211.22 105.148 210.096 106.266 210.096 107.646C210.096 109.025 211.22 110.143 212.606 110.143Z" fill="white" stroke="#111111"/>
<path d="M289.023 107.646H279.747H289.023Z" fill="white"/>
<path d="M289.023 107.646H279.747" stroke="white"/>
<path d="M143.998 58.4862H274.03V72.4897H143.998V58.4862Z" fill="#111111" stroke="#111111"/>
<path d="M152.14 67.9856C153.526 67.9856 154.649 66.8674 154.649 65.488C154.649 64.1086 153.526 62.9904 152.14 62.9904C150.754 62.9904 149.63 64.1086 149.63 65.488C149.63 66.8674 150.754 67.9856 152.14 67.9856Z" fill="white" stroke="#111111"/>
<path d="M161.233 67.9856C162.619 67.9856 163.742 66.8674 163.742 65.488C163.742 64.1086 162.619 62.9904 161.233 62.9904C159.847 62.9904 158.724 64.1086 158.724 65.488C158.724 66.8674 159.847 67.9856 161.233 67.9856Z" fill="white" stroke="#111111"/>
<path d="M170.333 67.9856C171.719 67.9856 172.843 66.8674 172.843 65.488C172.843 64.1086 171.719 62.9904 170.333 62.9904C168.947 62.9904 167.824 64.1086 167.824 65.488C167.824 66.8674 168.947 67.9856 170.333 67.9856Z" fill="white" stroke="#111111"/>
<path d="M266.445 65.4879H257.169H266.445Z" fill="white"/>
<path d="M266.445 65.4879H257.169" stroke="white"/>
<path d="M72.9381 24.1299H243.261V38.1334H72.9381L72.9381 24.1299Z" fill="#111111" stroke="#111111"/>
<path d="M81.0725 33.6362C82.4584 33.6362 83.5819 32.518 83.5819 31.1386C83.5819 29.7592 82.4584 28.641 81.0725 28.641C79.6866 28.641 78.5631 29.7592 78.5631 31.1386C78.5631 32.518 79.6866 33.6362 81.0725 33.6362Z" fill="white" stroke="#111111"/>
<path d="M90.1727 33.6362C91.5587 33.6362 92.6822 32.518 92.6822 31.1386C92.6822 29.7592 91.5587 28.641 90.1727 28.641C88.7868 28.641 87.6633 29.7592 87.6633 31.1386C87.6633 32.518 88.7868 33.6362 90.1727 33.6362Z" fill="white" stroke="#111111"/>
<path d="M99.2728 33.6362C100.659 33.6362 101.782 32.518 101.782 31.1386C101.782 29.7592 100.659 28.641 99.2728 28.641C97.8869 28.641 96.7634 29.7592 96.7634 31.1386C96.7634 32.518 97.8869 33.6362 99.2728 33.6362Z" fill="white" stroke="#111111"/>
<path d="M234.471 31.1386H225.202H234.471Z" fill="white"/>
<path d="M234.471 31.1386H225.202" stroke="white"/>
<path d="M232.054 125.669H284.385H232.054Z" fill="white"/>
<path d="M232.054 125.669H284.385" stroke="#111111"/>
<path d="M254.765 135.309H284.385H254.765Z" fill="white"/>
<path d="M254.765 135.309H284.385" stroke="#111111"/>
<path d="M248.492 81.9049H271.069H248.492Z" fill="white"/>
<path d="M248.492 81.9049H271.069" stroke="#111111"/>
<path d="M235.338 87.8402H271.069H235.338Z" fill="white"/>
<path d="M235.338 87.8402H271.069" stroke="#111111"/>
<path d="M264.063 144.991H284.385H264.063Z" fill="white"/>
<path d="M264.063 144.991H284.385" stroke="#111111"/>
<path d="M232.054 135.309H246.469H232.054Z" fill="white"/>
<path d="M232.054 135.309H246.469" stroke="#111111"/>
<path d="M205.007 95.8242C207.222 95.8242 209.018 94.0369 209.018 91.8322C209.018 89.6275 207.222 87.8402 205.007 87.8402C202.792 87.8402 200.996 89.6275 200.996 91.8322C200.996 94.0369 202.792 95.8242 205.007 95.8242Z" fill="white" stroke="#111111"/>
<path d="M256.767 237.347H210.089" stroke="#111111"/>
<path d="M256.767 245.078H235.338" stroke="#111111"/>
<path d="M191.043 127.746H218.971V147.776H191.043V127.746Z" fill="#111111" stroke="#111111"/>
<path d="M194.405 124.954H222.333V144.984H194.405V124.954Z" fill="white" stroke="#111111"/>
<path d="M200.996 48.8044H235.338" stroke="#111111"/>
<path d="M92.943 133.12H127.292" stroke="#111111"/>
<path d="M89.4537 213.689H130.394" stroke="#111111"/>
<path d="M89.4537 203.916H110.121" stroke="#111111"/>
<path d="M89.4537 223.259H130.394" stroke="#111111"/>
<path d="M89.4537 232.821H130.394" stroke="#111111"/>
<path d="M89.4537 242.384H130.394" stroke="#111111"/>
<path d="M89.4537 251.946H130.394" stroke="#111111"/>
<path d="M89.4537 261.509H130.394" stroke="#111111"/>
<path d="M222.326 53.4909H235.338" stroke="#111111"/>
<path d="M277.125 354.559C288.8 356.337 300.697 356.1 312.292 353.858L277.125 354.559Z" fill="#F9B132"/>
<path d="M277.125 354.559C288.8 356.337 300.697 356.1 312.292 353.858" stroke="#111111"/>
<path d="M320.546 351.9C331.612 348.801 341.825 343.237 350.412 335.631" stroke="#111111"/>
<path d="M79.5641 323.774H130.394V351.9H79.5641V323.774Z" fill="white" stroke="#111111"/>
<path d="M93.8594 323.774H130.394V351.9H93.8594L93.8594 323.774Z" fill="#111111" stroke="#111111"/>
<path fill-rule="evenodd" clip-rule="evenodd" d="M464.372 202.737L473.458 199.782C478.242 198.225 483.389 200.824 484.952 205.586C486.516 210.348 483.905 215.47 479.121 217.027L470.035 219.982L464.372 202.737Z" stroke="#111111"/>
<path d="M466.226 194.249V214.882C466.231 220.824 462.232 226.032 456.47 227.588C457.593 227.898 458.752 228.056 459.917 228.058C467.228 228.058 473.155 222.159 473.155 214.882V194.249H466.226Z" fill="#111111" stroke="#111111"/>
<path d="M466.226 214.882V194.249H446.665V214.882C446.667 220.838 450.689 226.05 456.47 227.588C462.232 226.031 466.231 220.824 466.226 214.882Z" fill="#FC56BD"/>
<path fill-rule="evenodd" clip-rule="evenodd" d="M446.665 194.249H473.134V214.889C473.134 222.166 467.207 228.065 459.896 228.065C452.585 228.065 446.658 222.166 446.658 214.889V194.249H446.665Z" stroke="#111111" stroke-width="1.34"/>
<path d="M471.351 195.61C472.478 195.055 473.134 194.41 473.134 193.722C473.134 191.618 467.206 189.955 459.896 189.955C452.586 189.955 446.665 191.639 446.665 193.722C446.665 194.424 447.321 195.055 448.449 195.61C450.74 194.48 455.004 193.722 459.896 193.722C464.788 193.722 469.06 194.501 471.351 195.61Z" fill="white" stroke="#111111" stroke-width="1.34"/>
<path d="M459.896 197.497C466.218 197.497 471.344 196.652 471.344 195.61C471.344 194.567 466.218 193.722 459.896 193.722C453.574 193.722 448.449 194.567 448.449 195.61C448.449 196.652 453.574 197.497 459.896 197.497Z" fill="#E5592E" stroke="#111111" stroke-width="1.34"/>
<path d="M467.558 96.1749C478.639 104.243 489.29 119.362 482.537 127.935C473.712 139.161 454.299 138.221 469.891 151.705C480.465 160.86 467.615 162.06 458.811 168.423C458.691 168.655 458.578 168.887 458.43 169.125C450.486 182.153 460.488 186.994 460.488 186.994C458.719 166.073 494.013 169.862 478.428 156.37C462.843 142.879 482.248 143.805 491.073 132.601C499.61 121.769 480.352 100.49 467.558 96.1749Z" fill="#F9AC30"/>
<path d="M469.863 151.705C454.271 138.221 473.684 139.14 482.509 127.935C489.262 119.362 478.611 104.243 467.53 96.175C467.1 96.0346 466.677 95.9013 466.261 95.7961C453.531 92.5829 441.928 103.703 460.46 118.759C478.992 133.815 447.518 124.778 443.987 140.88C440.526 156.679 465.359 156.139 458.789 168.424C467.615 162.06 480.437 160.86 469.863 151.705Z" fill="#F9C764"/>
<path fill-rule="evenodd" clip-rule="evenodd" d="M460.488 186.994C460.488 186.994 450.486 182.153 458.43 169.125C466.374 156.097 440.483 156.981 444.015 140.879C447.546 124.778 479.027 133.808 460.488 118.731C441.95 103.654 453.559 92.5547 466.289 95.7679C479.02 98.9812 499.899 121.369 491.074 132.573C482.248 143.777 462.814 142.886 478.428 156.37C494.041 169.855 458.719 166.073 460.488 186.994V186.994Z" stroke="#111111" stroke-width="1.34"/>
<path d="M339.381 106.832C340.934 106.832 342.193 106.361 342.193 105.78C342.193 105.198 340.934 104.727 339.381 104.727C337.827 104.727 336.568 105.198 336.568 105.78C336.568 106.361 337.827 106.832 339.381 106.832Z" fill="white" stroke="#161515" stroke-width="1.34"/>
<path d="M338.373 104.797C337.315 104.952 336.568 105.331 336.568 105.78C336.568 106.229 337.315 106.607 338.373 106.762C338.958 106.607 339.381 106.229 339.381 105.78C339.381 105.331 338.958 104.952 338.373 104.797Z" fill="#161515"/>
<path d="M329.413 106.832C330.967 106.832 332.226 106.361 332.226 105.78C332.226 105.198 330.967 104.727 329.413 104.727C327.86 104.727 326.601 105.198 326.601 105.78C326.601 106.361 327.86 106.832 329.413 106.832Z" fill="white" stroke="#161515" stroke-width="1.34"/>
<path d="M328.405 104.797C327.348 104.952 326.594 105.331 326.594 105.78C326.594 106.229 327.348 106.607 328.405 106.762C328.99 106.607 329.413 106.229 329.413 105.78C329.413 105.331 328.99 104.952 328.405 104.797Z" fill="#161515"/>
<path d="M334.481 105.78C333.822 107.537 332.936 109.203 331.845 110.733C331.672 110.92 331.614 111.187 331.695 111.429C331.775 111.671 331.981 111.85 332.233 111.897C333.445 112.08 334.855 112.157 334.855 112.157" stroke="#161515" stroke-linecap="round"/>
<path d="M331.302 116.724C331.302 116.724 334.629 118.485 339.38 116.023" stroke="#161515" stroke-linecap="round"/>
<path d="M179.659 458.891C179.659 458.891 184.988 442.341 200.369 435.465C215.749 428.59 197.5 405.501 214.621 401.74C231.743 397.98 205.697 384.727 218.097 381.521C230.496 378.315 241.013 394.248 233.4 402.673C225.787 411.099 217.265 419.911 226.231 424.254C235.197 428.597 225.138 468.166 205.38 474.768C185.622 481.369 157.377 501.049 179.659 458.891Z" fill="#111111" stroke="#111111"/>
<path d="M339.381 114.03C338.954 115.328 339.556 116.739 340.79 117.335" stroke="#161515" stroke-linecap="round"/>
<path d="M234.175 467.008C234.175 467.008 236.685 440.194 254.455 443.898C284.385 450.142 250.226 472.003 248.492 488.098C247.364 498.558 273.699 486.807 272.958 509.994C254.018 510.071 163.531 509.994 163.531 509.994C163.531 509.994 165.385 465.759 234.175 467.008Z" fill="#111111" stroke="#111111"/>
<path d="M181.463 476.802C181.463 476.802 143.399 466.426 136.815 485.144C130.232 503.862 103.241 489.409 100.732 510.064C132.734 510.106 174.041 510.064 174.041 510.064C174.041 510.064 213.874 488.161 181.463 476.802Z" fill="#111111" stroke="#111111"/>
<path d="M371.883 80.0947C366.892 69.5009 357.524 80.0947 351.406 69.0449C348.493 63.6299 343.416 59.6931 337.429 58.2068C331.441 56.7206 325.101 57.8236 319.975 61.2433C315.879 70.3638 313.299 84.3954 335.609 84.8514C368.81 85.553 344.773 97.5219 352.336 98.455C356.509 98.9742 359.449 99.2899 361.042 100.342C361.262 100.23 361.501 100.159 361.747 100.132C365.92 99.6196 376.719 90.4149 371.883 80.0947Z" fill="#E5592E"/>
<path d="M196.597 475.75C224.088 474.817 246.243 454.794 224.793 421.96C218.773 423.629 214.424 430.098 217.279 441.127C223.257 464.202 204.591 462.532 183.592 470.628C157.906 480.549 177.883 502.901 177.883 502.901C178.038 502.29 178.2 501.715 178.362 501.14C178.524 500.565 168.987 476.69 196.597 475.75Z" fill="#A1E23B" stroke="#111111" stroke-width="1.34"/>
<path d="M137.154 467.036C137.154 467.036 151.759 445.673 134.673 418.543C117.586 391.413 135.744 368.584 144.583 379.718C153.423 390.852 130.563 401.095 148.545 407.655C166.527 414.214 190.909 433.381 173.921 452.794C156.933 472.207 148.911 484.379 137.154 467.036Z" fill="#111111" stroke="#111111" stroke-width="1.34"/>
<path d="M112.123 436.012C144.28 456.856 145.218 442.102 160.986 472.551C162.396 475.259 163.721 477.728 164.983 480.008C164.44 476.299 164.629 472.519 165.54 468.881C170.622 448.262 165.85 437.556 135.413 432.561C105.539 427.65 111.341 395.468 102.36 394.282C96.9115 401.333 86.8315 419.616 112.123 436.012Z" fill="#7FD335" stroke="#111111" stroke-width="1.34"/>
<path d="M117.219 465.451C156.214 476.374 152.986 502.922 179.659 504.171C179.659 504.171 167.105 494.58 164.983 480.008C163.721 477.728 162.389 475.259 160.986 472.551C145.218 442.102 144.28 456.856 112.123 436.012C86.8315 419.617 96.9115 401.333 102.36 394.283C102.189 394.272 102.017 394.272 101.846 394.283C92.1182 394.247 58.8543 449.209 117.219 465.451Z" fill="#A1E23B" stroke="#111111" stroke-width="1.34"/>
<path d="M221.988 483.215C246.659 479.272 249.669 453.138 243.268 434.013C239.934 424.029 231.37 420.136 224.793 421.96C246.243 454.794 224.088 474.817 196.597 475.75C168.987 476.69 178.362 501.126 178.362 501.126C184.642 479.166 197.944 487.059 221.988 483.215Z" fill="#7FD335" stroke="#111111" stroke-width="1.34"/>
<path d="M167.422 473.252C172.441 458.266 200.347 437.338 185.925 419.855C171.503 402.372 199.107 388.284 183.733 373.635C180.128 370.124 176.345 366.799 172.398 363.673C170.284 366.268 170.763 370.688 176.55 376.827C191.297 392.514 143.604 401.74 161.212 415.8C178.82 429.86 176.55 441.716 161.487 464.209C146.423 486.701 179.687 504.199 179.687 504.199C179.461 503.967 179.243 503.722 179.024 503.497C178.624 503.377 178.248 503.189 177.911 502.943C177.911 502.943 162.396 488.245 167.422 473.252Z" fill="#A1E23B" stroke="#111111" stroke-width="1.34"/>
<path d="M195.343 458.295C220.444 442.369 216.997 424.878 207.58 423.314C198.162 421.749 186.87 413.632 195.033 403.017C203.195 392.402 202.561 373.663 191.896 365.202C185.411 360.06 175.683 359.688 172.37 363.701C176.326 366.826 180.119 370.151 183.733 373.663C199.107 388.34 171.496 402.393 185.925 419.883C200.354 437.373 172.441 458.295 167.422 473.252C162.403 488.21 177.882 502.894 177.882 502.894C178.219 503.14 178.596 503.328 178.996 503.448C169.967 493.24 170.827 473.82 195.343 458.295Z" fill="#7FD335" stroke="#111111" stroke-width="1.34"/>
<path d="M142.208 510.029H223.39C223.39 510.029 213.275 487.578 200.834 493.633C188.392 499.688 179.187 500.193 168.832 488.133C158.477 476.073 134.236 481.685 143.413 492.693C152.591 503.701 125.791 493.865 123.888 510.029H142.208Z" fill="#61AA1B" stroke="#111111" stroke-width="1.34"/>
<path d="M428.655 488.133C428.655 488.133 457.175 476.374 440.335 455.769C423.495 435.164 470.709 421.392 478.16 449.209C485.611 477.027 523.273 446.606 533.311 462.427C543.348 478.247 527.672 495.148 555.275 492.005C582.879 488.862 575.351 510.078 575.351 510.078H428.655V488.133Z" fill="#111111" stroke="#111111" stroke-width="1.34"/>
<path d="M428.655 510.078H540.176C539.857 500.654 534.291 492.192 525.74 488.133C511.071 480.998 527.587 457.818 510.035 443.674C492.483 429.53 473.656 440.166 478.047 455.145C482.439 470.123 469.264 476.802 448.442 462.427C429.297 449.174 406.465 477.658 418.406 492.005C430.347 506.353 396.463 495.064 395.849 510.078C415.297 509.51 428.655 510.078 428.655 510.078Z" fill="#7FD335"/>
<path d="M525.74 488.133C511.071 480.998 527.587 457.817 510.035 443.674C504.34 439.085 498.51 437.114 493.386 437.044C499.236 444.705 502.887 456.344 493.188 471.828C474.283 501.996 442.887 462.406 446.665 488.133C449.929 510.38 431.094 500.761 421.895 509.882C426.209 509.959 428.655 510.064 428.655 510.064H540.176C539.852 500.645 534.286 492.19 525.74 488.133Z" fill="#61AA1B"/>
<path fill-rule="evenodd" clip-rule="evenodd" d="M428.655 510.078H540.176C539.857 500.654 534.291 492.192 525.74 488.133C511.071 480.998 527.587 457.817 510.035 443.674C492.483 429.53 473.656 440.166 478.047 455.144C482.439 470.123 469.264 476.802 448.442 462.427C429.297 449.174 406.465 477.658 418.406 492.005C430.347 506.353 396.463 495.064 395.849 510.078C415.297 509.51 428.655 510.078 428.655 510.078Z" stroke="#111111"/>
<path d="M508.019 457.446C508.019 468.082 503 483.53 512.566 488.133C524.803 494.019 521.172 505.111 521.172 505.111" stroke="#111111" stroke-linecap="round"/>
<path d="M506.447 438.699C507.114 439.807 507.552 441.035 507.737 442.313" stroke="#111111" stroke-linecap="round"/>
<path d="M499.405 433.48C500.811 433.979 502.143 434.663 503.367 435.514" stroke="#111111" stroke-linecap="round"/>
<path d="M421.642 467.612C421.278 469.61 421.147 471.645 421.254 473.673" stroke="#111111" stroke-linecap="round"/>
<path d="M430.904 453.769C427.579 455.777 424.942 458.739 423.34 462.266" stroke="#111111" stroke-linecap="round"/>
<path d="M365.899 367.889C366.608 370.667 367.468 373.504 368.479 376.399" stroke="white"/>
<path d="M385.805 286.639C385.805 286.639 356.199 314.85 364.313 360.586" stroke="white"/>
<path d="M211.499 313.938C211.499 313.938 210.251 332.474 222.326 345.453" stroke="white"/>
<path d="M461.785 319.796H480.726C490.738 319.796 498.855 327.875 498.855 337.84C498.844 347.798 490.73 355.864 480.726 355.864H461.785V319.796V319.796Z" fill="white" stroke="#111111"/>
<path d="M461.785 355.52C471.697 355.52 479.732 347.523 479.732 337.658C479.732 327.793 471.697 319.796 461.785 319.796C451.874 319.796 443.839 327.793 443.839 337.658C443.839 347.523 451.874 355.52 461.785 355.52Z" fill="#111111" stroke="#111111"/>
<path fill-rule="evenodd" clip-rule="evenodd" d="M375.316 57.104C383.215 57.104 389.618 50.7307 389.618 42.8689C389.618 35.0071 383.215 28.6339 375.316 28.6339C367.417 28.6339 361.014 35.0071 361.014 42.8689C361.014 50.7307 367.417 57.104 375.316 57.104Z" stroke="white"/>
<path d="M62.6184 165.442V230.78" stroke="white"/>
<path d="M62.6184 140.332V153.269" stroke="white"/>
</svg>
