<svg width="173" height="36" viewBox="0 0 173 36" fill="none" xmlns="http://www.w3.org/2000/svg">
<path fill-rule="evenodd" clip-rule="evenodd" d="M2.37409 1.26445C2.01021 1.62499 2.01021 4.26525 2.37409 4.62579C2.52745 4.77774 2.89388 4.90206 3.18828 4.90206C3.62628 4.90206 3.77429 4.71396 4.00316 3.86603L4.28292 2.83L5.68684 2.80077C6.45921 2.78465 8.24118 2.70683 9.64695 2.62809C12.1162 2.4895 12.2055 2.46601 12.2812 1.93511C12.3244 1.63282 12.2199 1.29783 12.0489 1.19032C11.5412 0.87145 2.70241 0.939137 2.37409 1.26445ZM13.9138 1.54119C13.704 1.9975 13.7116 2.20539 13.9491 2.48904C14.6023 3.26859 15.9716 2.36057 15.4311 1.50619C15.0161 0.850499 14.2228 0.868918 13.9138 1.54119ZM17.065 1.55062C16.9867 1.86005 16.9909 2.22266 17.0743 2.35642C17.1738 2.51574 19.2457 2.60875 23.0795 2.62602C26.2988 2.64053 30.2701 2.71811 31.9045 2.79869L34.8761 2.94512L29.1292 8.78394C25.9684 11.9954 23.1928 14.8617 22.9609 15.1539L22.5394 15.6848L28.0238 20.8263C33.7808 26.2233 34.3554 26.6955 34.9089 26.4851C35.3541 26.3158 35.6234 21.9219 35.431 17.9675C35.2512 14.2701 35.2131 14.1112 34.5095 14.1112C33.7759 14.1112 33.7497 14.2528 33.6151 18.9057C33.5552 20.9729 33.4469 22.7231 33.3742 22.7952C33.2433 22.925 31.3357 21.2478 27.3063 17.4603L25.2151 15.4946L31.2764 9.56511C34.6103 6.30415 37.6298 3.1963 37.9867 2.65894C39.136 0.928317 39.5078 0.988176 27.6309 0.988176H17.2075L17.065 1.55062ZM6.7392 6.3479C5.52652 7.50249 4.18882 8.45886 2.35991 9.47923C0.504519 10.5146 -0.180711 11.0066 0.039799 11.1449C0.211745 11.2529 1.46533 11.3429 2.82533 11.345L5.29834 11.3485L6.60118 12.743L7.90425 14.1374V19.3678V24.5981L13.6329 29.8876C16.7837 32.7968 19.5808 35.3325 19.8485 35.5225C20.2579 35.8128 21.817 35.8786 29.6299 35.9357C34.7418 35.973 39.1595 35.9452 39.4471 35.8738C40.7174 35.5584 40.4609 35.269 31.3726 26.7669C28.8806 24.4356 24.9857 20.7742 22.7172 18.6306L18.5928 14.7333V11.0782V7.42306L17.1406 6.05551L15.6883 4.68795L12.0867 4.6868L8.48515 4.68588L6.7392 6.3479ZM20.9164 6.74389C20.7398 7.07104 20.7398 7.33765 20.9164 7.6648C21.1476 8.09257 21.403 8.12526 24.5217 8.12526H27.8784L28.0241 7.55015C28.331 6.338 28.1809 6.28343 24.5336 6.28343C21.403 6.28343 21.1476 6.31589 20.9164 6.74389ZM15.8038 7.34617L16.7339 8.1789V11.9174V15.656L18.07 16.8836C18.8047 17.5586 20.6085 19.2511 22.0782 20.6444C27.1427 25.4456 28.944 27.1417 32.4763 30.4367C34.4251 32.2546 36.0198 33.8319 36.0198 33.9415C36.0198 34.0513 35.3787 34.1411 34.5954 34.1411H33.1711L29.3211 30.515C27.2034 28.5207 23.6427 25.1537 21.4081 23.0326C17.3271 19.1592 16.6909 18.7406 16.0492 19.5068C15.8561 19.7373 15.8428 19.9641 16.0053 20.2551C16.2734 20.7353 19.6586 24.0382 25.7379 29.7502C28.0701 31.9415 29.9785 33.8259 29.9785 33.9378C29.9785 34.0497 29.3251 34.1388 28.5262 34.136L27.074 34.131L25.4409 32.582C24.5429 31.7301 21.772 29.1283 19.2834 26.8002C13.1925 21.1021 13.7133 21.7504 13.7133 19.8655C13.7133 18.6023 13.6315 18.2328 13.3127 18.0559C13.0585 17.915 12.761 17.9139 12.4994 18.0527C12.1495 18.2383 12.0867 18.5972 12.0867 20.4098V22.5479L14.0037 24.3748C15.0579 25.3795 17.7243 27.8968 19.9289 29.9687C22.1333 32.0402 23.9371 33.8266 23.9371 33.9383C23.9371 34.0499 23.2488 34.1411 22.4075 34.1411H20.8778L18.2831 31.6445C16.8559 30.2714 14.3553 27.918 12.7257 26.4148L9.76313 23.6818V18.3702V13.0588L7.88799 11.3623L6.01308 9.66549L7.5915 8.08957L9.16969 6.51366H12.0217H14.8737L15.8038 7.34617ZM11.6952 8.34835C10.6308 8.79154 10.3582 10.4048 11.1743 11.4325C11.8274 12.2553 13.1721 12.2795 13.9284 11.4818C14.5939 10.7798 14.6439 9.40556 14.0262 8.79338C13.5027 8.27491 12.3846 8.06126 11.6952 8.34835ZM33.8484 9.69749C33.1606 10.4503 33.5203 11.3485 34.5095 11.3485C35.52 11.3485 35.8904 10.3391 35.1301 9.65743C34.5857 9.16912 34.3236 9.1774 33.8484 9.69749ZM20.0762 12.3711C19.8287 13.01 20.0929 13.5356 20.662 13.5356C21.3948 13.5356 21.8101 12.8965 21.3974 12.4038C21.0159 11.9484 20.2472 11.9293 20.0762 12.3711ZM28.5759 13.8964C28.3761 14.2666 28.4012 14.4968 28.6893 14.9324C29.0948 15.5455 29.3285 15.607 29.9664 15.2688C30.9857 14.7282 30.6653 13.4205 29.5137 13.4205C29.0634 13.4205 28.746 13.5817 28.5759 13.8964ZM12.1432 14.1473C11.7057 14.5809 11.7963 15.196 12.3551 15.5837C13.1063 16.105 13.7616 15.6788 13.6686 14.7291C13.6112 14.1414 13.4816 13.9827 13.0145 13.9286C12.6941 13.8916 12.3021 13.9899 12.1432 14.1473ZM2.48423 14.399C2.12384 14.6603 2.09316 15.2755 2.1494 21.1083C2.20563 26.9338 2.24908 27.5531 2.61807 27.7836C2.91456 27.9689 3.13483 27.9689 3.43133 27.7836C3.80008 27.5533 3.84376 26.9352 3.89976 21.1362C3.96157 14.7425 3.89488 14.1112 3.15691 14.1112C3.00518 14.1112 2.70264 14.2408 2.48423 14.399ZM5.34783 25.6233C5.14847 25.9926 5.15172 26.1936 5.36061 26.4432C5.7361 26.8914 6.72294 26.8619 6.90302 26.3971C7.26852 25.4532 5.82719 24.736 5.34783 25.6233ZM3.95344 31.0337C0.480121 34.4795 -0.0719663 35.1219 0.14529 35.4656C0.285171 35.6868 0.681345 35.9009 1.02593 35.9417C1.56129 36.0048 2.17705 35.5031 5.26325 32.4883C7.24923 30.5481 8.97706 28.7726 9.10277 28.5426C9.36045 28.0713 8.80558 27.004 8.30298 27.004C8.14498 27.004 6.18758 28.8175 3.95344 31.0337ZM10.5929 30.3587C9.89116 31.0542 10.295 32.069 11.2735 32.069C12.284 32.069 12.6544 31.0597 11.8941 30.378C11.3636 29.9023 11.0583 29.8977 10.5929 30.3587ZM4.9254 34.5191C4.6152 35.0687 4.85081 35.6901 5.42776 35.8434C5.70357 35.9166 7.94422 35.9781 10.407 35.9797L14.885 35.9829L15.1465 35.4142C15.3465 34.9793 15.3386 34.7625 15.1132 34.4933C14.8658 34.1977 14.0386 34.1411 9.97853 34.1411C5.73239 34.1411 5.11291 34.1874 4.9254 34.5191Z" fill="black"/>
<path d="M163.732 24.6177C160.495 24.8139 156.964 25.6476 156.964 28.9332C156.964 30.7477 158.092 31.3361 159.269 31.3361C161.868 31.3361 163.732 28.4919 163.732 25.0101V24.6177ZM163.977 33.3468C162.211 34.9651 159.759 35.9458 156.768 35.9458C151.766 35.9458 148.775 33.3958 148.775 29.5217C148.775 22.9014 157.405 21.0869 163.683 20.6455C163.437 16.6733 162.555 14.4175 160.25 14.0743C158.19 13.731 157.602 15.3493 157.307 16.7224C155.297 25.5495 146.911 20.2532 150.295 14.0252C152.207 10.4944 156.278 9.75879 159.465 9.75879C167.262 9.75879 172.068 14.2214 172.068 22.6562C172.068 24.1273 171.921 25.6966 172.313 26.8736C172.804 28.5899 173 30.4044 173 31.3852C173 35.2103 170.009 35.8968 167.557 35.8968C165.546 35.8968 164.418 35.4064 163.977 33.3468Z" fill="#00D560"/>
<path d="M137.051 31.3362C137.051 30.3554 137.247 28.5409 137.541 27.413C137.835 26.0399 138.522 24.4707 138.522 22.9995C138.522 21.8716 138.129 20.4004 138.031 20.1062C137.247 17.1148 137.051 15.3003 137.051 14.3195C137.051 10.6906 139.65 9.75885 142.445 9.75885C145.191 9.75885 146.368 10.6906 146.368 15.3493V22.6562C146.368 24.2255 146.908 25.7947 147.202 26.9226C147.643 28.59 147.839 30.4044 147.839 31.3852C147.839 34.9651 145.289 35.9459 142.445 35.9459C139.699 35.9459 137.051 35.0142 137.051 31.3362ZM136.805 4.36451C136.805 1.71638 138.816 0 142.053 0C145.093 0 147.153 1.52022 147.153 4.11931C147.153 6.76744 145.044 8.38574 141.807 8.38574C138.767 8.38574 136.805 6.9636 136.805 4.36451Z" fill="#00D560"/>
<path d="M131.259 35.9458C128.758 35.9458 127.042 34.3275 127.042 31.9246C127.042 29.5217 128.758 27.9524 131.308 27.9524C133.858 27.9524 135.427 29.5707 135.427 31.9246C135.427 34.2785 133.809 35.9458 131.259 35.9458Z" fill="#00D560"/>
<path d="M111.02 21.136C111.755 24.6668 113.521 31.8266 116.414 31.4343C118.523 31.1891 118.523 27.2659 117.787 23.0976C116.757 17.36 114.796 13.8291 112.687 14.4176C111.314 14.8099 111.069 16.5753 111.02 18.5859V21.136ZM101.702 31.3852C101.702 30.3554 101.898 28.5409 102.389 26.8736C102.879 25.3043 103.173 23.2937 103.173 21.7735V14.1234C103.173 12.6031 102.879 10.5925 102.389 9.02325C101.898 7.30687 101.702 5.49242 101.702 4.51163C101.702 0.833668 104.399 0 107.096 0C109.499 0 111.02 0.63751 111.02 5.54145V11.4262C112.196 10.3964 113.717 9.75885 115.678 9.75885C121.22 9.75885 126.467 15.0061 126.467 22.8524C126.467 30.6987 121.22 35.9459 116.267 35.9459C114.06 35.9459 112.295 34.9161 110.823 33.3468C110.333 35.4555 108.96 35.8969 106.998 35.8969C104.252 35.8969 101.702 35.0142 101.702 31.3852Z" fill="#00D560"/>
<path d="M91.4655 24.6177C88.2288 24.8139 84.698 25.6476 84.698 28.9332C84.698 30.7477 85.8259 31.3361 87.0029 31.3361C89.6019 31.3361 91.4655 28.4919 91.4655 25.0101V24.6177ZM91.7106 33.3468C89.9452 34.9651 87.4933 35.9458 84.5019 35.9458C79.4998 35.9458 76.5084 33.3958 76.5084 29.5217C76.5084 22.9014 85.1394 21.0869 91.4164 20.6455C91.1712 16.6733 90.2885 14.4175 87.9837 14.0743C85.924 13.731 85.3355 15.3493 85.0413 16.7224C83.0307 25.5495 74.6449 20.2532 78.0286 14.0252C79.9412 10.4944 84.0115 9.75879 87.199 9.75879C94.9963 9.75879 99.8022 14.2214 99.8022 22.6562C99.8022 24.1273 99.655 25.6966 100.047 26.8736C100.538 28.5899 100.734 30.4044 100.734 31.3852C100.734 35.2103 97.7425 35.8968 95.2905 35.8968C93.2799 35.8968 92.152 35.4064 91.7106 33.3468Z" fill="#00D560"/>
<path d="M51.8074 10.4944C51.8074 4.26638 56.7604 0.294189 63.4788 0.294189C68.0885 0.294189 71.9627 2.15769 74.1694 5.39429C79.1224 12.6031 69.8049 17.9484 67.3039 10.053C66.4212 7.15971 66.7645 3.57983 63.2336 3.67791C60.8307 3.72695 59.1143 5.44333 59.1143 7.60106C59.1143 14.3685 75.5916 13.9762 75.5916 25.1081C75.5916 31.2381 70.6386 35.6026 63.4788 35.6026C58.8201 35.6026 54.946 33.7391 52.7392 30.5025C47.7862 23.2937 57.1037 17.9484 60.0461 27.413C60.4874 28.7371 61.4192 32.415 64.8029 31.6794C66.8626 31.2381 68.2847 29.4727 68.2847 27.462C68.2847 20.6946 51.8074 21.8715 51.8074 10.4944Z" fill="#00D560"/>
</svg>
