<?xml version="1.0" standalone="no"?>
<!DOCTYPE svg PUBLIC "-//W3C//DTD SVG 20010904//EN"
 "http://www.w3.org/TR/2001/REC-SVG-20010904/DTD/svg10.dtd">
<svg version="1.0" xmlns="http://www.w3.org/2000/svg"
 width="1000.000000pt" height="1000.000000pt" viewBox="0 0 1000.000000 1000.000000"
 preserveAspectRatio="xMidYMid meet">
<metadata>
Created by potrace 1.14, written by Peter Selinger 2001-2017
</metadata>
<g transform="translate(0.000000,1000.000000) scale(0.100000,-0.100000)"
fill="#000000" stroke="none">
<path d="M1327 9374 c-1 -2 -72 -5 -156 -8 -84 -3 -155 -7 -158 -10 -3 -3 -14
-1 -24 5 -11 5 -19 6 -19 1 0 -4 -17 -8 -37 -8 -52 -1 -189 -12 -241 -20 -85
-12 -96 -18 -119 -64 -12 -25 -21 -49 -19 -55 2 -5 -1 -20 -5 -33 -29 -79 -29
-508 0 -585 6 -15 8 -27 6 -27 -3 0 1 -15 9 -34 8 -19 12 -37 9 -39 -9 -10 79
-67 121 -78 62 -17 136 -19 172 -4 61 25 97 98 151 305 50 192 52 200 76 199
51 -1 712 18 712 21 0 1 54 3 120 5 66 2 165 7 220 10 55 3 138 8 185 10 210
12 406 24 466 29 18 2 37 7 44 11 9 6 11 4 5 -5 -5 -8 -4 -11 2 -7 5 3 23 8
39 11 16 3 43 8 61 11 52 8 101 43 112 78 24 76 10 174 -32 219 -28 30 -54 35
-312 54 -78 6 -1382 13 -1388 8z"/>
<path d="M4294 9348 c-4 -18 -9 -37 -10 -43 -1 -5 -7 -30 -14 -55 -26 -92 -20
-202 13 -222 26 -16 224 -32 522 -42 163 -6 695 -14 1425 -21 923 -10 1571
-26 1990 -50 41 -2 131 -7 200 -10 239 -12 283 -14 287 -19 2 -2 -89 -99 -204
-214 -114 -116 -395 -400 -623 -632 -228 -232 -507 -514 -619 -628 -493 -501
-1015 -1036 -1234 -1265 -78 -81 -167 -174 -198 -207 -31 -32 -83 -91 -115
-132 -33 -40 -62 -74 -66 -76 -24 -11 -20 -15 216 -235 169 -158 252 -235 344
-322 112 -106 139 -131 272 -255 62 -58 129 -121 150 -140 20 -19 95 -89 165
-155 71 -66 143 -133 161 -150 56 -53 248 -232 284 -265 19 -18 91 -85 160
-150 69 -64 139 -129 155 -144 17 -15 71 -65 120 -111 180 -166 416 -381 485
-440 18 -17 44 -39 55 -50 12 -11 46 -40 76 -65 30 -24 56 -48 57 -52 2 -5 10
-8 18 -8 8 0 14 -4 14 -9 0 -13 168 -131 220 -154 58 -26 119 -24 142 6 21 25
42 89 52 157 2 14 6 36 9 50 12 48 29 212 31 282 1 21 3 38 6 38 3 0 5 21 6
48 1 26 4 103 8 172 4 69 9 166 12 215 6 120 6 848 0 955 -3 47 -8 155 -12
240 -3 85 -8 180 -10 210 -1 30 -5 102 -8 160 -3 58 -8 130 -11 160 -3 30 -8
80 -11 110 -3 30 -7 62 -9 70 -2 8 -7 31 -10 50 -9 54 -41 117 -67 133 -46 30
-181 26 -212 -6 -21 -20 -45 -71 -51 -108 -3 -19 -8 -47 -11 -64 -11 -60 -22
-211 -29 -375 -2 -58 -4 -105 -5 -105 0 0 -3 -65 -5 -145 -12 -425 -22 -703
-31 -855 -3 -55 -7 -136 -9 -180 -4 -81 -15 -213 -20 -250 -2 -11 -4 -28 -4
-37 -1 -22 -30 -23 -56 -3 -102 76 -203 157 -255 205 -21 19 -51 45 -67 57
-15 12 -44 37 -64 55 -20 18 -69 62 -109 98 -40 36 -87 79 -105 95 -17 17 -67
62 -111 101 -126 113 -171 155 -240 221 -35 34 -64 60 -64 59 0 -2 -26 22 -59
53 -32 31 -104 99 -161 151 -56 52 -123 115 -148 139 -99 92 -212 197 -331
310 -69 64 -159 149 -200 189 l-76 72 162 158 c88 86 284 277 434 424 797 776
1215 1187 1526 1498 474 474 835 847 1012 1050 87 98 191 273 191 319 0 65
-74 106 -226 126 -16 2 -29 4 -29 5 0 2 -105 11 -180 15 -38 2 -70 4 -70 5 0
9 -530 12 -2512 17 l-2311 5 -8 -34z"/>
<path d="M3580 9348 c-111 -55 -174 -243 -108 -324 32 -39 74 -74 90 -74 9 0
20 -5 23 -11 9 -13 89 -9 138 8 47 16 116 64 117 81 0 6 4 12 8 12 18 0 39 67
37 117 -5 107 -105 205 -217 209 -30 2 -61 -5 -88 -18z"/>
<path d="M2043 8382 c-43 -41 -143 -136 -223 -213 -432 -412 -698 -608 -1230
-909 -236 -133 -404 -236 -485 -295 -124 -92 -132 -116 -43 -134 121 -25 263
-31 807 -35 l454 -3 66 -70 c105 -110 303 -322 372 -397 35 -38 82 -88 104
-111 22 -23 56 -59 75 -79 l35 -37 0 -1306 1 -1305 77 -72 c42 -39 113 -105
158 -146 45 -41 94 -86 109 -100 85 -79 237 -219 264 -243 17 -16 54 -50 82
-75 27 -26 97 -90 153 -142 57 -52 120 -111 141 -130 20 -19 74 -69 120 -110
45 -41 103 -95 129 -120 26 -25 70 -65 97 -89 27 -24 78 -71 114 -105 36 -33
108 -99 159 -146 51 -47 111 -101 132 -121 22 -20 76 -70 120 -110 45 -41 102
-94 128 -117 25 -24 70 -64 98 -90 29 -25 77 -68 106 -96 30 -28 92 -85 138
-126 46 -41 98 -88 116 -105 17 -16 59 -55 94 -85 34 -30 70 -62 78 -70 9 -9
54 -49 101 -90 47 -41 89 -80 95 -87 5 -6 50 -46 99 -88 108 -91 148 -106 331
-120 33 -3 93 -7 133 -10 72 -6 251 -12 552 -20 504 -13 3184 -26 3565 -17 39
1 77 2 85 1 115 -2 311 13 353 27 56 18 97 49 97 72 0 109 -198 335 -780 892
-101 96 -204 195 -230 220 -25 25 -104 99 -175 165 -70 66 -149 140 -175 165
-26 25 -98 92 -160 150 -62 58 -132 123 -155 145 -22 22 -94 90 -160 150 -187
174 -274 255 -344 323 -36 34 -66 62 -67 62 -2 0 -23 19 -47 43 -24 23 -97 92
-162 152 -65 61 -145 136 -178 168 -33 31 -61 57 -62 57 -1 0 -22 19 -47 43
-38 36 -151 143 -337 317 -26 25 -103 97 -171 160 -174 162 -276 258 -330 310
-26 25 -102 97 -170 160 -67 63 -147 138 -176 165 -29 28 -101 95 -160 150
-59 55 -126 118 -149 140 -23 22 -106 101 -185 175 -79 74 -167 158 -196 185
-29 28 -107 102 -175 165 -67 63 -141 133 -164 155 -23 22 -95 90 -160 150
-64 61 -144 136 -177 168 l-60 58 0 911 0 912 -32 30 c-18 17 -93 87 -166 156
-74 69 -155 145 -181 170 -273 258 -339 319 -348 321 -3 1 -410 2 -903 3
l-897 2 -78 -74z m416 -387 c5 -3 12 -1 16 5 4 6 11 7 17 4 9 -6 87 -8 113 -4
28 5 62 4 82 -2 12 -4 25 -3 28 3 4 5 11 6 17 3 9 -6 87 -8 113 -4 28 5 62 4
82 -2 12 -4 25 -3 28 3 4 5 11 6 17 3 9 -6 87 -8 113 -4 28 5 62 4 82 -2 12
-4 25 -3 28 3 4 5 11 6 17 3 9 -6 87 -8 113 -4 28 5 62 4 82 -2 12 -4 25 -3
28 3 4 5 11 6 17 3 9 -6 87 -8 113 -4 28 5 62 4 82 -2 12 -4 25 -3 28 2 4 7
13 6 26 0 10 -6 19 -8 19 -4 0 4 8 -2 18 -12 9 -10 55 -53 102 -94 47 -41 98
-87 115 -102 16 -14 41 -36 55 -48 14 -12 59 -52 100 -90 l75 -68 -1 -932 0
-931 100 -92 c55 -51 127 -117 160 -148 34 -31 85 -78 115 -105 29 -27 70 -65
91 -84 20 -19 88 -82 150 -140 62 -58 134 -125 160 -150 26 -25 97 -92 159
-150 62 -58 134 -125 160 -150 27 -25 84 -79 127 -120 44 -41 149 -140 233
-220 85 -80 175 -165 201 -190 27 -25 110 -103 186 -175 76 -71 152 -143 169
-160 18 -16 99 -94 181 -171 82 -78 165 -156 184 -174 31 -29 210 -197 340
-320 26 -25 98 -92 160 -150 61 -58 143 -134 181 -170 37 -36 109 -103 160
-150 50 -47 108 -101 128 -120 45 -43 264 -247 307 -287 17 -15 82 -75 143
-133 62 -58 134 -124 160 -148 41 -39 178 -169 354 -336 231 -218 507 -499
507 -515 0 -39 -135 -54 -495 -55 l-211 -1 -43 40 c-24 22 -63 58 -86 80 -23
22 -99 94 -170 160 -129 121 -275 258 -371 350 -29 28 -99 93 -155 145 -56 52
-121 113 -144 135 -23 22 -99 94 -170 160 -70 66 -156 147 -190 180 -35 33
-114 107 -175 165 -62 58 -139 130 -170 160 -53 51 -263 248 -349 329 -55 52
-289 273 -357 338 -34 32 -121 114 -194 183 -73 69 -161 152 -195 185 -35 33
-111 105 -170 160 -114 106 -151 141 -281 264 -107 101 -269 249 -319 292 -22
19 -44 39 -50 45 -25 28 -222 188 -298 242 -131 93 -202 121 -293 114 -29 -3
-101 -67 -123 -111 -33 -66 -13 -132 70 -227 54 -61 675 -681 866 -864 77 -74
216 -207 308 -295 92 -88 191 -182 220 -210 29 -27 112 -106 185 -175 73 -69
159 -150 190 -180 31 -30 108 -102 170 -160 62 -58 134 -125 160 -150 26 -25
100 -94 165 -155 64 -60 155 -146 201 -190 46 -44 132 -126 191 -182 416 -392
773 -752 773 -779 0 -30 -143 -45 -445 -45 -121 0 -233 0 -250 1 -23 0 -48 18
-110 77 -125 119 -374 354 -415 393 -103 96 -312 292 -370 347 -105 99 -171
162 -285 268 -59 55 -132 123 -162 152 -30 28 -97 91 -150 140 -228 211 -370
343 -453 423 -38 36 -110 103 -160 150 -51 47 -109 101 -130 120 -20 19 -85
80 -144 135 -60 55 -130 120 -156 145 -26 25 -103 97 -171 160 -120 113 -449
438 -500 496 -34 38 -92 120 -116 164 -17 31 -28 60 -40 110 -2 8 -5 130 -7
270 -2 140 -7 275 -11 300 -15 95 -57 154 -125 175 -35 11 -110 13 -116 3 -3
-4 -12 -8 -21 -8 -43 0 -97 -69 -109 -137 -2 -13 -7 -35 -10 -50 -3 -16 -8
-234 -10 -485 l-4 -456 34 -34 c18 -18 93 -89 166 -158 73 -69 163 -154 200
-190 70 -68 299 -284 434 -411 43 -41 100 -94 126 -119 75 -71 308 -291 360
-340 27 -25 106 -99 176 -165 70 -66 139 -131 154 -145 15 -14 85 -80 156
-147 71 -66 147 -138 169 -158 55 -52 320 -303 419 -398 139 -134 458 -452
514 -512 71 -77 70 -82 -25 -99 -66 -13 -184 -19 -416 -20 l-260 -2 -30 25
c-16 14 -65 59 -107 101 -43 41 -153 147 -245 235 -92 88 -205 196 -250 240
-46 44 -147 141 -225 215 -79 74 -168 159 -199 188 -49 47 -226 214 -332 313
-19 19 -86 81 -148 138 -61 58 -129 121 -150 140 -20 20 -89 83 -151 141 -63
58 -133 123 -156 145 -23 22 -77 72 -119 110 -43 39 -92 84 -109 100 -17 17
-80 75 -140 130 -61 55 -126 116 -147 135 -20 19 -70 65 -110 101 -160 144
-172 157 -166 178 3 12 1 24 -4 27 -6 3 -6 11 -1 17 9 13 9 74 -1 83 -3 3 -2
17 3 30 6 15 6 26 -1 30 -6 3 -6 11 -1 17 9 13 9 74 -1 83 -3 3 -2 17 3 30 6
15 6 26 -1 30 -6 3 -6 11 -1 17 9 13 9 74 -1 83 -3 3 -2 17 3 30 6 15 6 26 -1
30 -6 3 -6 11 -1 17 9 13 9 74 -1 83 -3 3 -2 17 3 30 6 15 6 26 -1 30 -6 3 -6
11 -1 17 9 13 9 74 -1 83 -3 3 -2 17 3 30 6 15 6 26 -1 30 -6 3 -6 11 -1 17 9
13 9 74 -1 83 -3 3 -2 17 3 30 6 15 6 26 -1 30 -6 3 -6 11 -1 17 9 13 9 74 -1
83 -3 3 -2 16 2 28 7 21 7 30 0 91 -2 17 0 35 4 41 3 6 2 25 -2 42 -5 17 -7
33 -4 36 4 3 5 45 4 93 -2 100 -2 91 -1 201 1 46 -1 86 -4 89 -3 4 -1 11 4 18
6 7 6 23 1 43 -5 17 -7 33 -4 36 4 3 5 45 4 93 -2 100 -2 91 -1 201 1 46 -1
86 -4 89 -3 4 -1 11 4 18 6 7 6 23 1 43 -5 17 -7 33 -4 36 4 3 5 45 4 93 -1
49 -2 93 -2 98 0 6 1 41 2 79 l2 69 -55 51 c-30 28 -87 80 -128 116 -40 36
-90 80 -109 99 -20 18 -62 56 -95 85 -32 28 -75 67 -95 86 -20 19 -57 53 -81
74 -25 22 -70 62 -101 90 -81 74 -218 198 -246 221 -12 11 -23 24 -23 28 0 4
176 183 392 398 368 366 394 390 425 387 17 -1 34 0 37 3 6 6 83 2 95 -6z"/>
<path d="M3068 7575 c-2 -2 -21 -5 -43 -8 -51 -6 -125 -29 -125 -39 0 -5 -7
-8 -16 -8 -21 0 -126 -106 -148 -150 -44 -86 -60 -157 -59 -260 1 -141 49
-262 144 -367 21 -22 40 -38 43 -35 3 3 6 1 6 -5 0 -15 124 -72 161 -75 17 -1
32 -5 34 -8 4 -7 120 -4 165 4 137 26 264 120 325 242 16 32 28 62 27 66 -1 4
5 26 14 50 25 70 23 209 -5 298 -13 41 -32 84 -43 96 -10 11 -18 24 -18 28 0
10 -54 56 -99 84 -38 23 -125 59 -163 66 -13 2 -34 7 -48 10 -27 7 -147 15
-152 11z"/>
<path d="M3095 6127 c-110 -45 -158 -173 -104 -278 67 -133 242 -205 341 -141
56 36 82 98 82 196 1 93 -5 130 -27 173 -15 27 -67 72 -67 57 0 -4 -6 -2 -12
4 -23 18 -158 12 -213 -11z"/>
<path d="M5617 8054 c-1 -1 -51 -4 -112 -8 -162 -8 -219 -26 -258 -78 -29 -38
-55 -111 -51 -142 7 -62 20 -96 54 -141 41 -56 114 -73 347 -82 179 -6 1341
-11 1360 -5 11 4 24 39 39 104 2 10 7 28 10 41 3 12 6 27 7 32 2 6 5 15 8 20
3 6 6 38 8 71 4 89 -18 121 -99 148 -104 34 -172 38 -788 40 -287 1 -524 1
-525 0z"/>
<path d="M8570 7293 c-72 -35 -168 -149 -188 -223 -22 -84 7 -180 67 -221 65
-44 100 -53 191 -52 173 3 279 137 230 290 -23 70 -101 155 -178 194 -54 27
-86 30 -122 12z"/>
<path d="M5105 6609 c-4 -5 -10 -7 -14 -5 -4 3 -22 -8 -39 -23 -45 -42 -71
-152 -49 -211 21 -57 33 -73 73 -96 34 -20 54 -25 103 -23 224 8 287 239 91
339 -46 23 -155 36 -165 19z"/>
<path d="M7290 6265 c-88 -26 -138 -73 -165 -154 -23 -70 -14 -115 42 -203 69
-108 128 -151 197 -141 48 6 172 70 207 106 120 124 85 312 -70 379 -53 23
-158 29 -211 13z"/>
<path d="M755 6095 c-112 -31 -174 -82 -189 -156 -3 -13 -8 -35 -11 -49 -26
-116 -26 -1724 0 -2625 12 -424 30 -522 104 -574 93 -66 233 -18 257 90 2 10
6 27 8 37 14 63 25 204 32 400 3 92 6 178 8 192 1 14 -3 31 -8 38 -4 6 -5 12
0 12 9 0 10 27 17 890 3 300 6 550 7 555 1 6 2 12 1 15 -1 3 -3 174 -6 380 -5
424 -10 515 -35 635 -29 141 -84 188 -185 160z"/>
<path d="M1425 3315 c-40 -17 -82 -66 -106 -121 -31 -73 -23 -119 28 -172 97
-101 301 -100 366 0 37 57 33 141 -10 201 -28 41 -102 99 -115 91 -4 -2 -9 0
-12 4 -8 14 -118 12 -151 -3z"/>
<path d="M2044 2868 c-78 -60 -216 -183 -408 -361 -190 -178 -460 -441 -846
-827 -392 -392 -535 -539 -640 -660 -56 -63 -110 -150 -119 -188 -9 -41 -8
-43 34 -85 52 -52 149 -93 217 -90 92 3 220 91 477 329 31 29 74 68 96 89 308
285 1182 1155 1366 1360 59 66 67 85 67 150 0 33 -4 65 -8 70 -5 6 -9 15 -10
20 -15 67 -73 152 -130 188 -47 29 -63 30 -96 5z"/>
<path d="M2773 2129 c-18 -3 -44 -14 -57 -22 -39 -26 -114 -106 -122 -130 -4
-12 -10 -24 -15 -27 -4 -3 -10 -19 -13 -35 -2 -17 -5 -32 -6 -35 -1 -3 -1 -9
0 -15 1 -5 3 -26 5 -46 5 -56 33 -102 91 -149 11 -9 24 -17 29 -19 6 -2 21 -8
35 -13 43 -18 151 -16 204 4 59 21 106 59 117 93 1 6 9 16 16 23 13 14 17 38
14 105 -3 79 -66 168 -163 230 -60 38 -89 46 -135 36z"/>
<path d="M1797 1104 c-1 -1 -74 -5 -162 -8 -162 -7 -210 -10 -277 -21 -21 -4
-40 -6 -43 -6 -21 3 -74 -42 -93 -79 -20 -38 -23 -56 -19 -117 3 -62 8 -76 37
-112 70 -89 98 -93 650 -107 323 -7 1819 -11 1829 -4 7 5 21 33 65 133 33 75
46 147 32 172 -41 74 -72 99 -137 110 -19 3 -45 8 -59 10 -100 21 -376 28
-1123 29 -384 1 -699 0 -700 0z"/>
</g>
</svg>
